# Blender 3.5.0
# www.blender.org
mtllib ground.mtl
o å¹³é¢
v -24.468332 1.340522 -24.468332
v -24.468332 1.340522 24.468332
v 24.468332 1.340522 -24.468332
v 24.468332 1.340522 24.468332
v -24.468332 1.340522 0.000000
v 24.468332 1.340522 0.000000
v 0.000000 1.340522 -24.468332
v 0.000000 1.340522 24.468332
v 0.000000 1.340522 0.000000
v -12.234166 1.340522 -24.468332
v -12.234166 1.340522 24.468332
v -12.234166 3.037203 0.000000
v 12.234166 1.340522 24.468332
v 12.234166 2.256463 0.000000
v 12.234166 1.340522 -24.468332
v 24.468332 1.340522 -12.234166
v -24.468332 1.340522 -12.234166
v 0.000000 1.340522 -12.234166
v -12.234166 3.354614 -12.163648
v 12.234166 1.473395 -12.234166
v -24.468332 1.340522 12.234166
v 24.468332 1.586192 12.234166
v 0.000000 1.340522 12.234166
v -12.234166 2.718302 12.234166
v 12.234166 3.844695 12.234166
v -18.351250 1.340522 -24.468332
v -18.351250 1.340522 24.468332
v -18.351250 3.961502 0.000000
v -18.351250 8.070538 -12.234166
v -18.351250 6.723472 12.234166
v -6.117083 1.340522 24.468332
v -6.117083 1.340522 0.000000
v -6.117083 1.340522 -24.468332
v -6.117083 1.340522 -12.234166
v -6.117083 1.340522 12.234166
v 6.117083 1.340522 -24.468332
v 6.117083 1.340522 24.468332
v 6.117083 1.340522 0.000000
v 6.117083 1.340522 -12.234166
v 6.117083 1.340522 12.234166
v 18.351250 1.340522 24.468332
v 18.351250 5.407405 0.000000
v 18.351250 1.340522 -24.468332
v 18.351250 2.103931 -12.234166
v 18.351250 7.394792 12.234166
v -24.468332 1.340522 18.351250
v 24.468332 1.340522 18.351250
v 0.000000 1.340522 18.351250
v -12.234166 7.766064 18.351250
v 12.234166 6.696470 18.351250
v -18.351250 4.229233 18.351250
v -6.117083 1.340522 18.351250
v 6.117083 1.340522 18.351250
v 18.351250 -0.877230 18.351250
v 24.468332 1.340522 6.117083
v 0.000000 1.340522 6.117083
v -12.234166 3.825367 6.117083
v 12.234166 6.696503 6.117083
v -24.468332 1.340522 6.117083
v -13.936110 1.340522 8.344398
v -6.117083 1.340522 6.117083
v 6.117083 1.575406 6.117083
v 18.351250 4.809137 6.117083
v -24.468332 1.340522 -6.117083
v 24.468332 1.340522 -6.117083
v 0.000000 1.340522 -6.117083
v -12.234166 5.311730 -6.117083
v 10.810660 4.105273 -6.117083
v -18.351250 6.513283 -6.117083
v -6.117083 1.340522 -6.117083
v 6.117083 1.421678 -6.117083
v 18.351250 8.010726 -6.117083
v 24.468332 1.340522 -18.351250
v 0.000000 1.340522 -18.351250
v -12.234166 10.258573 -18.351250
v 12.234166 6.865665 -18.351250
v -24.468332 1.340522 -18.351250
v -18.351250 5.916331 -18.351250
v -6.117083 1.340522 -18.351250
v 6.117083 1.340522 -18.351250
v 18.351250 10.298051 -18.351250
vn -0.1756 0.9687 -0.1756
vn 0.6513 0.7422 0.1579
vn -0.0000 1.0000 -0.0000
vn -0.2242 0.7754 0.5903
vn 0.1596 0.9183 0.3623
vn -0.3106 0.9327 0.1833
vn -0.3722 0.8502 0.3722
vn -0.3897 0.8427 0.3714
vn 0.0264 0.9326 0.3600
vn 0.5509 0.6934 0.4644
vn -0.5172 0.8298 0.2094
vn 0.0772 0.9287 -0.3627
vn 0.5942 0.7836 -0.1813
vn -0.1958 0.8250 -0.5302
vn -0.6731 0.7284 -0.1283
vn -0.5292 0.8306 0.1733
vn -0.2240 0.9485 0.2240
vn 0.3000 0.9501 0.0860
vn 0.6161 0.6870 0.3854
vn 0.4216 0.8028 0.4216
vn 0.4145 0.8947 0.1663
vn -0.0192 0.9996 0.0192
vn -0.0066 1.0000 0.0066
vn -0.1346 0.9907 0.0216
vn -0.2169 0.6532 0.7254
vn -0.4295 0.8314 0.3525
vn 0.5143 0.8307 0.2131
vn 0.2880 0.8756 0.3879
vn 0.5079 0.7963 -0.3285
vn -0.5523 0.8169 0.1665
vn -0.5304 0.8256 -0.1924
vn 0.0374 0.9782 -0.2042
vn 0.2342 0.7979 0.5555
vn -0.0981 0.9495 -0.2982
vn -0.0192 0.9996 -0.0192
vn 0.3228 0.9445 -0.0608
vn -0.1812 0.9565 0.2287
vn 0.5240 0.8507 0.0416
vn -0.1466 0.9748 0.1683
vn -0.4186 0.8483 -0.3242
vn -0.2583 0.7778 -0.5729
vn -0.0066 1.0000 -0.0066
vn 0.4343 0.8893 -0.1431
vn -0.6944 0.7138 0.0909
vn -0.2449 0.9401 -0.2370
vn 0.4354 0.8998 -0.0296
vn 0.4800 0.7900 -0.3814
vn -0.1782 0.6350 -0.7517
vn 0.5075 0.6963 -0.5075
vn -0.3306 0.8840 -0.3306
vn 0.5086 0.6947 -0.5086
vn -0.2319 0.6534 -0.7206
vn -0.3806 0.8428 -0.3806
vt 0.000000 0.000000
vt 1.000000 0.000000
vt 0.000000 1.000000
vt 1.000000 1.000000
vt 0.500000 0.000000
vt 0.500000 1.000000
vt 0.000000 0.500000
vt 1.000000 0.500000
vt 0.500000 0.500000
vt 0.000000 0.250000
vt 1.000000 0.250000
vt 0.500000 0.250000
vt 1.000000 0.750000
vt 0.500000 0.750000
vt 0.000000 0.750000
vt 0.250000 1.000000
vt 0.250000 0.000000
vt 0.250000 0.500000
vt 0.250000 0.250000
vt 0.250000 0.750000
vt 0.750000 0.000000
vt 0.750000 1.000000
vt 0.750000 0.500000
vt 0.750000 0.250000
vt 0.750000 0.750000
vt 0.000000 0.125000
vt 1.000000 0.125000
vt 0.500000 0.125000
vt 0.250000 0.125000
vt 0.750000 0.125000
vt 1.000000 0.375000
vt 0.500000 0.375000
vt 0.000000 0.375000
vt 0.250000 0.375000
vt 0.750000 0.375000
vt 0.000000 0.625000
vt 1.000000 0.625000
vt 0.500000 0.625000
vt 0.250000 0.625000
vt 0.750000 0.625000
vt 1.000000 0.875000
vt 0.500000 0.875000
vt 0.000000 0.875000
vt 0.250000 0.875000
vt 0.750000 0.875000
vt 0.875000 0.000000
vt 0.875000 1.000000
vt 0.875000 0.500000
vt 0.875000 0.250000
vt 0.875000 0.750000
vt 0.875000 0.125000
vt 0.875000 0.375000
vt 0.875000 0.625000
vt 0.875000 0.875000
vt 0.625000 1.000000
vt 0.625000 0.500000
vt 0.625000 0.250000
vt 0.625000 0.750000
vt 0.625000 0.000000
vt 0.625000 0.125000
vt 0.625000 0.375000
vt 0.625000 0.625000
vt 0.625000 0.875000
vt 0.375000 0.000000
vt 0.375000 1.000000
vt 0.375000 0.500000
vt 0.375000 0.250000
vt 0.375000 0.750000
vt 0.375000 0.125000
vt 0.375000 0.375000
vt 0.375000 0.625000
vt 0.375000 0.875000
vt 0.125000 1.000000
vt 0.125000 0.500000
vt 0.125000 0.250000
vt 0.125000 0.750000
vt 0.125000 0.000000
vt 0.125000 0.125000
vt 0.125000 0.375000
vt 0.125000 0.625000
vt 0.125000 0.875000
s 0
f 54/54/1 41/41/1 4/4/1 47/47/1
f 72/72/2 42/42/2 6/6/2 65/65/2
f 70/70/3 32/32/3 9/9/3 66/66/3
f 52/52/3 31/31/3 8/8/3 48/48/3
f 51/51/4 27/27/4 11/11/4 49/49/4
f 69/69/5 28/28/5 12/12/5 67/67/5
f 71/71/6 38/38/6 14/14/6 68/68/6
f 53/53/7 37/37/7 13/13/7 50/50/7
f 80/80/8 39/39/8 20/20/8 76/76/8
f 78/78/9 29/29/9 19/19/9 75/75/9
f 79/79/3 34/34/3 18/18/3 74/74/3
f 81/81/10 44/44/10 16/16/10 73/73/10
f 62/62/11 40/40/11 25/25/11 58/58/11
f 60/60/12 30/30/12 24/24/12 57/57/12
f 61/61/3 35/35/3 23/23/3 56/56/3
f 63/63/13 45/45/13 22/22/13 55/55/13
f 59/59/14 21/21/14 30/30/14 60/60/14
f 77/77/15 17/17/15 29/29/15 78/78/15
f 64/64/16 5/5/16 28/28/16 69/69/16
f 46/46/17 2/2/17 27/27/17 51/51/17
f 57/57/18 24/24/18 35/35/18 61/61/18
f 75/75/19 19/19/19 34/34/19 79/79/19
f 49/49/20 11/11/20 31/31/20 52/52/20
f 67/67/21 12/12/21 32/32/21 70/70/21
f 56/56/22 23/23/22 40/40/22 62/62/22
f 74/74/3 18/18/3 39/39/3 80/80/3
f 48/48/3 8/8/3 37/37/3 53/53/3
f 66/66/23 9/9/23 38/38/23 71/71/23
f 58/58/24 25/25/24 45/45/24 63/63/24
f 76/76/25 20/20/25 44/44/25 81/81/25
f 68/68/26 14/14/26 42/42/26 72/72/26
f 50/50/27 13/13/27 41/41/27 54/54/27
f 25/25/28 50/50/28 54/54/28 45/45/28
f 23/23/3 48/48/3 53/53/3 40/40/3
f 24/24/29 49/49/29 52/52/29 35/35/29
f 21/21/30 46/46/30 51/51/30 30/30/30
f 40/40/31 53/53/31 50/50/31 25/25/31
f 30/30/32 51/51/32 49/49/32 24/24/32
f 35/35/3 52/52/3 48/48/3 23/23/3
f 45/45/33 54/54/33 47/47/33 22/22/33
f 14/14/34 58/58/34 63/63/34 42/42/34
f 9/9/35 56/56/35 62/62/35 38/38/35
f 12/12/36 57/57/36 61/61/36 32/32/36
f 5/5/37 59/59/37 60/60/37 28/28/37
f 42/42/38 63/63/38 55/55/38 6/6/38
f 32/32/3 61/61/3 56/56/3 9/9/3
f 28/28/39 60/60/39 57/57/39 12/12/39
f 38/38/40 62/62/40 58/58/40 14/14/40
f 20/20/41 68/68/41 72/72/41 44/44/41
f 18/18/42 66/66/42 71/71/42 39/39/42
f 19/19/43 67/67/43 70/70/43 34/34/43
f 17/17/44 64/64/44 69/69/44 29/29/44
f 39/39/45 71/71/45 68/68/45 20/20/45
f 29/29/46 69/69/46 67/67/46 19/19/46
f 34/34/3 70/70/3 66/66/3 18/18/3
f 44/44/47 72/72/47 65/65/47 16/16/47
f 15/15/48 76/76/48 81/81/48 43/43/48
f 7/7/3 74/74/3 80/80/3 36/36/3
f 10/10/49 75/75/49 79/79/49 33/33/49
f 1/1/50 77/77/50 78/78/50 26/26/50
f 43/43/51 81/81/51 73/73/51 3/3/51
f 33/33/3 79/79/3 74/74/3 7/7/3
f 26/26/52 78/78/52 75/75/52 10/10/52
f 36/36/53 80/80/53 76/76/53 15/15/53
